<?xml version="1.0" encoding="UTF-8"?>
<svg version="1.1" xmlns="http://www.w3.org/2000/svg" width="192" height="192">
<path d="M0 0 C1.15246719 -0.00511093 2.30493439 -0.01022186 3.49232483 -0.01548767 C7.28163933 -0.02932603 11.07077074 -0.02843106 14.86010742 -0.02612305 C16.83866637 -0.02902896 18.81722539 -0.03194029 20.79578322 -0.03552979 C27.01133488 -0.04659129 33.22682609 -0.04708178 39.44238281 -0.04101562 C45.82431629 -0.03498218 52.20602895 -0.04727843 58.58792478 -0.06858569 C64.09399487 -0.08628329 69.5999952 -0.09219017 75.10609263 -0.08894795 C78.38276247 -0.08714743 81.65924137 -0.09098878 84.93589211 -0.10366249 C88.59675421 -0.11608444 92.25711388 -0.10920007 95.91796875 -0.09765625 C97.51517761 -0.10912186 97.51517761 -0.10912186 99.14465332 -0.12081909 C111.67876557 -0.03404528 123.35213343 2.82242028 132.84057617 11.3371582 C142.29049256 21.40241798 144.45458181 33.95388943 144.44360352 47.17578125 C144.45032074 48.34600327 144.45703796 49.51622528 144.46395874 50.72190857 C144.48290002 54.576775 144.48686122 58.43146692 144.48901367 62.28637695 C144.49186369 63.62214547 144.49505619 64.9579133 144.49858475 66.29368019 C144.51705468 73.29183287 144.52525951 80.2899097 144.52368164 87.28808594 C144.52248229 93.77852692 144.54355166 100.26863428 144.57516897 106.75899094 C144.60145583 112.35762626 144.61204372 117.95615348 144.61077082 123.55484992 C144.61026464 126.88701291 144.61763846 130.21864473 144.63712692 133.55078697 C144.65687398 137.27632133 144.65091344 141.00101256 144.63891602 144.7265625 C144.65015503 145.80804565 144.66139404 146.88952881 144.67297363 148.00378418 C144.57082555 160.58007727 140.99535574 171.99840742 132.30541992 181.23950195 C122.06984821 190.86460219 109.86434923 192.58068253 96.30615234 192.54931641 C95.15368515 192.55442734 94.00121796 192.55953827 92.81382751 192.56480408 C89.02451302 192.57864244 85.2353816 192.57774747 81.44604492 192.57543945 C79.46748597 192.57834537 77.48892695 192.58125669 75.51036912 192.5848462 C69.29481746 192.5959077 63.07932625 192.59639818 56.86376953 192.59033203 C50.48183605 192.58429859 44.10012339 192.59659484 37.71822757 192.6179021 C32.21215748 192.63559969 26.70615715 192.64150658 21.20005971 192.63826436 C17.92338987 192.63646384 14.64691098 192.64030518 11.37026024 192.6529789 C7.70939813 192.66540084 4.04903847 192.65851647 0.38818359 192.64697266 C-0.67662231 192.65461639 -1.74142822 192.66226013 -2.83850098 192.6701355 C-15.37261323 192.58336169 -27.04598108 189.72689612 -36.53442383 181.2121582 C-45.98434021 171.14689843 -48.14842947 158.59542697 -48.13745117 145.37353516 C-48.1441684 144.20331314 -48.15088562 143.03309113 -48.1578064 141.82740784 C-48.17674768 137.9725414 -48.18070887 134.11784948 -48.18286133 130.26293945 C-48.18571134 128.92717094 -48.18890385 127.59140311 -48.1924324 126.25563622 C-48.21090233 119.25748354 -48.21910717 112.25940671 -48.2175293 105.26123047 C-48.21632994 98.77078949 -48.23739931 92.28068213 -48.26901662 85.79032546 C-48.29530348 80.19169014 -48.30589138 74.59316292 -48.30461848 68.99446648 C-48.3041123 65.6623035 -48.31148612 62.33067168 -48.33097458 58.99852943 C-48.35072163 55.27299508 -48.3447611 51.54830385 -48.33276367 47.82275391 C-48.34400269 46.74127075 -48.3552417 45.6597876 -48.36682129 44.54553223 C-48.2646732 31.96923913 -44.68920339 20.55090899 -35.99926758 11.30981445 C-25.76369586 1.68471421 -13.55819688 -0.03136612 0 0 Z " fill="#181A2D" transform="translate(47.846923828125,-0.274658203125)"/>
<path d="M0 0 C45.65219156 0 45.65219156 0 57.13671875 9.9921875 C66.21931613 19.77930501 68.87862182 31.52087695 68.41015625 44.5390625 C67.56151872 56.71794211 63.16482039 67.42853947 54.11328125 75.73046875 C38.98240744 87.40285712 17.43873962 84 0 84 C0 56.28 0 28.56 0 0 Z " fill="#6848E7" transform="translate(32,51)"/>
<path d="M0 0 C4.95 0 9.9 0 15 0 C15 9.57 15 19.14 15 29 C17.64 27.35 20.28 25.7 23 24 C29.15783248 21.94738917 36.50989488 21.88206857 42.4375 24.6875 C49.25056015 28.75562889 53.85568383 34.34549431 56 42 C57.50411038 54.57720268 57.19181737 67.54370077 49.25 77.9375 C43.55508143 83.78709537 38.53634906 85.25220194 30.375 85.5 C24.58548237 85.5477486 21.57502108 84.57208853 17 81 C16.505 80.505 16.505 80.505 16 80 C15.67 81.65 15.34 83.3 15 85 C10.05 85 5.1 85 0 85 C0 56.95 0 28.9 0 0 Z " fill="#6748E6" transform="translate(109,50)"/>
<path d="M0 0 C19.875 0 19.875 0 26 4 C26.928125 4.5775 27.85625 5.155 28.8125 5.75 C34.91314684 12.02495103 36.29150199 19.60600077 36.3190918 28.08935547 C36.17929373 35.59515882 34.3563105 41.23133517 29.5 46.9375 C28.2625 47.9584375 28.2625 47.9584375 27 49 C26.38125 49.556875 25.7625 50.11375 25.125 50.6875 C17.19483451 55.58554339 9.22404096 54 0 54 C0 36.18 0 18.36 0 0 Z " fill="#17192B" transform="translate(48,66)"/>
<path d="M0 0 C5.19719122 1.79902773 7.32849441 4.25065673 10 9 C12.08079409 15.24238228 11.81192229 21.87930729 9.25 27.9375 C6.98943225 32.40272041 4.86829864 35.37723379 0 37 C-5.98363729 37.45159527 -9.8648471 36.4011753 -14.64038086 32.74365234 C-17.58599821 28.96602635 -16.55475239 23.21158692 -16.5625 18.625 C-16.59923828 17.48804687 -16.63597656 16.35109375 -16.67382812 15.1796875 C-16.71689272 7.02612478 -16.71689272 7.02612478 -14.69482422 4.13183594 C-10.06355745 0.21209631 -5.90938932 -0.59534892 0 0 Z " fill="#17192D" transform="translate(140,86)"/>
<path d="M0 0 C11.55 0 23.1 0 35 0 C35.495 0.99 35.495 0.99 36 2 C24.78 2.33 13.56 2.66 2 3 C1.67 19.5 1.34 36 1 53 C0.67 53 0.34 53 0 53 C0 35.51 0 18.02 0 0 Z " fill="#7352F1" transform="translate(32,51)"/>
</svg>
